<svg xmlns="http://www.w3.org/2000/svg" viewBox="0 0 1200 450" role="img" aria-label="Ilustração científica abstrata" focusable="false"><defs><linearGradient id="g" x1="0" x2="1" y1="0" y2="1"><stop stop-color="#14244b"/><stop offset="1" stop-color="#08101f"/></linearGradient><filter id="glow"><feGaussianBlur stdDeviation="5" result="b"/><feMerge><feMergeNode in="b"/><feMergeNode in="SourceGraphic"/></feMerge></filter></defs><rect width="1200" height="450" rx="26" fill="url(#g)"/><g opacity=".22" stroke="#8d6bff" stroke-width="1"><path d="M80 0V450"/><path d="M160 0V450"/><path d="M240 0V450"/><path d="M320 0V450"/><path d="M400 0V450"/><path d="M480 0V450"/><path d="M560 0V450"/><path d="M640 0V450"/><path d="M720 0V450"/><path d="M800 0V450"/><path d="M880 0V450"/><path d="M960 0V450"/><path d="M1040 0V450"/><path d="M1120 0V450"/><path d="M0 50H1200"/><path d="M0 100H1200"/><path d="M0 150H1200"/><path d="M0 200H1200"/><path d="M0 250H1200"/><path d="M0 300H1200"/><path d="M0 350H1200"/><path d="M0 400H1200"/></g><g filter="url(#glow)"><circle cx="388" cy="237" r="18" fill="none" stroke="#7df9ff" stroke-width="3" opacity=".65"/><circle cx="471" cy="284" r="26" fill="none" stroke="#8d6bff" stroke-width="3" opacity=".65"/><circle cx="554" cy="181" r="34" fill="none" stroke="#7df9ff" stroke-width="3" opacity=".65"/><circle cx="637" cy="228" r="18" fill="none" stroke="#8d6bff" stroke-width="3" opacity=".65"/><circle cx="720" cy="275" r="26" fill="none" stroke="#7df9ff" stroke-width="3" opacity=".65"/><circle cx="803" cy="172" r="34" fill="none" stroke="#8d6bff" stroke-width="3" opacity=".65"/><circle cx="386" cy="219" r="18" fill="none" stroke="#7df9ff" stroke-width="3" opacity=".65"/><circle cx="600" cy="225" r="92" fill="none" stroke="#7df9ff" stroke-width="4" opacity=".75"/><circle cx="600" cy="225" r="48" fill="#8d6bff" opacity=".28"/></g><path d="M70 380H1130" stroke="#7df9ff" opacity=".25"/><circle cx="110" cy="80" r="4" fill="#7df9ff"/><circle cx="1080" cy="350" r="5" fill="#8d6bff"/></svg>